<svg width="1440" height="2098" viewBox="0 0 1440 2098" fill="none" xmlns="http://www.w3.org/2000/svg">
<rect width="1440" height="2098" fill="#F5F5F5"/>
<rect width="1440" height="2095" transform="translate(0 3)" fill="white"/>
<path d="M737.5 0C737.5 1427.2 737.5 1781.33 737.5 1780H646.5L627 1890C633.5 1899.17 650.1 1914.3 664.5 1901.5C682.5 1885.5 670.5 1922 704 1917.5C730.8 1913.9 724.5 1916 718 1917.5V1960.5C729.833 1968.17 756.2 1976.9 767 1950.5C777.8 1924.1 771.5 1891.17 767 1878C789.833 1888.5 835.7 1900.2 836.5 1863C837.5 1816.5 802.5 1899.5 787 1813.5C791 1839.5 755.667 1811 737.5 1793.5" stroke="#FF0000"/>
</svg>
